<svg xmlns="http://www.w3.org/2000/svg" width="39.623" height="35.686" viewBox="0 0 39.623 35.686">
  <g id="est_op" data-name="est&amp;op" transform="translate(0.5)">
    <rect id="Rectangle_820" data-name="Rectangle 820" width="38.623" height="3.801" rx="1.9" transform="translate(0 31.385)" fill="none" stroke="#0077B6" stroke-miterlimit="10" stroke-width="1"/>
    <path id="Path_613" data-name="Path 613" d="M50.021,9.541H15.64V6.75L32.493,0,50.021,6.75Z" transform="translate(-13.444)" fill="#0077B6"/>
    <path id="Path_614" data-name="Path 614" d="M325.29,261.932V249.574h.8a.783.783,0,0,0,.785-.783V248.2a.785.785,0,0,0-.785-.785h-5.574a.787.787,0,0,0-.785.785v.586a.785.785,0,0,0,.785.783h.765v12.358h-2v2.7h8.2v-2.7Z" transform="translate(-314.604 -235.391)" fill="none" stroke="#0077B6" stroke-miterlimit="10" stroke-width="1"/>
    <path id="Path_615" data-name="Path 615" d="M450.21,261.932V249.574h.8a.783.783,0,0,0,.785-.783V248.2a.785.785,0,0,0-.785-.785h-5.574a.787.787,0,0,0-.785.785v.586a.785.785,0,0,0,.785.783h.765v12.358h-2v2.7h8.2v-2.7Z" transform="translate(-418.663 -235.391)" fill="none" stroke="#0077B6" stroke-miterlimit="10" stroke-width="1"/>
    <ellipse id="Ellipse_1" data-name="Ellipse 1" cx="2.755" cy="2.755" rx="2.755" ry="2.755" transform="translate(16.556 17.662)" fill="none" stroke="#0077B6" stroke-miterlimit="10" stroke-width="1"/>
    <path id="Path_616" data-name="Path 616" d="M384.993,272.42a4.172,4.172,0,0,0,.062-1.1l1.126-.6-.578-1.608-1.226.247a4.091,4.091,0,0,0-.76-.855l.359-1.182-1.546-.728-.668,1a4.1,4.1,0,0,0-1.181-.067l-.564-1.057-1.615.589.235,1.169a4.081,4.081,0,0,0-.885.807l-1.139-.346-.73,1.543,1,.668a4.088,4.088,0,0,0-.047,1.179l-1.069.571.578,1.607,1.212-.244a4.111,4.111,0,0,0,.777.835l-.357,1.187,1.546.728.706-1.064a4.116,4.116,0,0,0,1.1.045l.606,1.134,1.608-.576-.255-1.273a4.033,4.033,0,0,0,.8-.73l1.242.377.73-1.546Z" transform="translate(-361.66 -251.26)" fill="none" stroke="#0077B6" stroke-linecap="round" stroke-linejoin="round" stroke-width="1"/>
  </g>
</svg>
