<svg xmlns="http://www.w3.org/2000/svg" width="35.613" height="38.224" viewBox="0 0 35.613 38.224">
  <g id="events_and_production" data-name="events and production" transform="translate(0.503 0.542)">
    <path id="Path_617" data-name="Path 617" d="M235.693,160.826a16,16,0,0,1-.1-1.809,15.772,15.772,0,0,1,9.141-14.312" transform="translate(-233.853 -137.806)" fill="none" stroke="#0077B6" stroke-linecap="round" stroke-miterlimit="10" stroke-width="1"/>
    <path id="Path_618" data-name="Path 618" d="M338.482,461.66a15.784,15.784,0,0,1-16.352,0" transform="translate(-312.802 -426.96)" fill="none" stroke="#0077B6" stroke-linecap="round" stroke-miterlimit="10" stroke-width="1"/>
    <path id="Path_619" data-name="Path 619" d="M495.67,147a15.769,15.769,0,0,1,8.727,14.113" transform="translate(-471.121 -139.9)" fill="none" stroke="#0077B6" stroke-linecap="round" stroke-miterlimit="10" stroke-width="1"/>
    <path id="Path_620" data-name="Path 620" d="M234.86,350.425a2.188,2.188,0,1,0-2.072-2.069A2.188,2.188,0,0,0,234.86,350.425Z" transform="translate(-231.294 -321.493)" fill="none" stroke="#0077B6" stroke-miterlimit="10" stroke-width="1"/>
    <path id="Path_621" data-name="Path 621" d="M222.662,403.25a.72.72,0,0,0,.7-.864c-.379-1.9-1.93-3.6-3.781-3.6s-3.4,1.7-3.781,3.6a.721.721,0,0,0,.7.864Z" transform="translate(-215.787 -369.605)" fill="none" stroke="#0077B6" stroke-miterlimit="10" stroke-width="1"/>
    <path id="Path_622" data-name="Path 622" d="M542.86,350.425a2.188,2.188,0,1,0-2.072-2.069A2.187,2.187,0,0,0,542.86,350.425Z" transform="translate(-512.279 -321.493)" fill="none" stroke="#0077B6" stroke-miterlimit="10" stroke-width="1"/>
    <path id="Path_623" data-name="Path 623" d="M530.662,403.25a.72.72,0,0,0,.7-.864c-.379-1.9-1.93-3.6-3.781-3.6s-3.4,1.7-3.781,3.6a.721.721,0,0,0,.7.864Z" transform="translate(-496.771 -369.605)" fill="none" stroke="#0077B6" stroke-miterlimit="10" stroke-width="1"/>
    <path id="Path_624" data-name="Path 624" d="M390.86,70.425a2.188,2.188,0,1,0-2.072-2.069A2.188,2.188,0,0,0,390.86,70.425Z" transform="translate(-373.611 -66.052)" fill="none" stroke="#0077B6" stroke-miterlimit="10" stroke-width="1"/>
    <path id="Path_625" data-name="Path 625" d="M378.662,123.25a.72.72,0,0,0,.7-.864c-.379-1.9-1.93-3.6-3.781-3.6s-3.4,1.7-3.781,3.6a.721.721,0,0,0,.7.864Z" transform="translate(-358.104 -114.164)" fill="none" stroke="#0077B6" stroke-miterlimit="10" stroke-width="1"/>
    <path id="Path_626" data-name="Path 626" d="M326.053,227.981c4.872,0,8.822-2.975,8.822-6.645s-3.947-6.646-8.822-6.646-8.823,2.975-8.823,6.646c0,2.3,1.556,4.332,3.919,5.526a4.563,4.563,0,0,1-1.959,4.1s4.357-.9,4.865-2.908Z" transform="translate(-308.332 -201.653)" fill="none" stroke="#0077B6" stroke-linejoin="round" stroke-width="1"/>
    <ellipse id="Ellipse_2" data-name="Ellipse 2" cx="0.965" cy="0.965" rx="0.965" ry="0.965" transform="translate(12.719 18.976)" fill="#0077B6"/>
    <ellipse id="Ellipse_3" data-name="Ellipse 3" cx="0.965" cy="0.965" rx="0.965" ry="0.965" transform="translate(16.754 16.784)" fill="#0077B6"/>
    <ellipse id="Ellipse_4" data-name="Ellipse 4" cx="0.965" cy="0.965" rx="0.965" ry="0.965" transform="translate(20.789 20.467)" fill="#0077B6"/>
  </g>
</svg>
