<svg id="Hr" xmlns="http://www.w3.org/2000/svg" width="39.496" height="37.584" viewBox="0 0 39.496 37.584">
  <path id="Path_627" data-name="Path 627" d="M341.7,282.555a.823.823,0,0,1-.823-.823V267.743a.823.823,0,0,1,1.645,0v9.874a.823.823,0,1,0,1.647,0v-10.7a2.471,2.471,0,0,0-2.468-2.47h-11.52l-9.84-.791a.878.878,0,0,1-.194-.039,1.128,1.128,0,0,0-.785,2.114l10.909,1.19a.822.822,0,0,1,.731.817V281.73a.823.823,0,1,1-1.645,0V268.482l-10.273-1.123a1,1,0,0,1-.171-.038,2.778,2.778,0,0,1,1.652-5.3l9.686.785h11.454a4.119,4.119,0,0,1,4.109,4.111v10.7a2.471,2.471,0,0,1-3.292,2.328v1.787A.823.823,0,0,1,341.7,282.555Z" transform="translate(-306.322 -245.005)" fill="#0077B6"/>
  <path id="Path_628" data-name="Path 628" d="M194.6,136.022l-1.645,1.731-1.647-1.731,1.647-8.142Z" transform="translate(-163.334 -109.169)" fill="#fff"/>
  <path id="Path_629" data-name="Path 629" d="M431.5,280.077a.822.822,0,0,1-.6-.256l-1.647-1.733a.825.825,0,0,1-.209-.731l1.645-8.136a.823.823,0,0,1,1.609,0l1.647,8.142a.826.826,0,0,1-.211.731l-1.639,1.727A.822.822,0,0,1,431.5,280.077Zm-.755-2.814.755.794.755-.794-.755-3.732Z" transform="translate(-401.874 -250.668)" fill="#0077B6"/>
  <path id="Path_630" data-name="Path 630" d="M421.885,226.238a4.55,4.55,0,1,0-4.115-4.524A4.333,4.333,0,0,0,421.885,226.238Z" transform="translate(-392.263 -206.791)" fill="#fff"/>
  <path id="Path_631" data-name="Path 631" d="M417.087,222.3a5.366,5.366,0,1,1,4.937-5.348A5.16,5.16,0,0,1,417.087,222.3Zm0-9.05a3.728,3.728,0,1,0,3.292,3.7A3.519,3.519,0,0,0,417.087,213.247Z" transform="translate(-387.465 -202.027)" fill="#0077B6"/>
  <path id="Path_632" data-name="Path 632" d="M262.265,302.03a.826.826,0,0,1-.823-.823v-7.053a.823.823,0,0,1,1.647,0v7.053A.826.826,0,0,1,262.265,302.03Zm-18.1,0a.826.826,0,0,1-.823-.823V288.865a4.116,4.116,0,0,1,4.115-4.115h11.519a4.1,4.1,0,0,1,3.8,2.543.816.816,0,0,1-.439,1.069.835.835,0,0,1-1.078-.439,2.457,2.457,0,0,0-2.286-1.528H247.455a2.474,2.474,0,0,0-2.468,2.468v12.342a.826.826,0,0,1-.819.825Zm18.1-10.344a.823.823,0,1,1,.823-.822A.823.823,0,0,1,262.265,291.686Z" transform="translate(-243.34 -264.48)" fill="#0077B6"/>
  <path id="Path_633" data-name="Path 633" d="M345.452,326.249a.823.823,0,0,1-.822-.823v-11.52a.823.823,0,0,1,1.645,0v11.52A.823.823,0,0,1,345.452,326.249Z" transform="translate(-329.818 -288.699)" fill="#0077B6"/>
  <path id="Path_634" data-name="Path 634" d="M266.673,326.249a.823.823,0,0,1-.823-.823v-11.52a.823.823,0,0,1,1.645,0v11.52A.823.823,0,0,1,266.673,326.249Z" transform="translate(-262.558 -288.699)" fill="#0077B6"/>
  <path id="Path_635" data-name="Path 635" d="M59.562,152.9l-1.647,1.731L56.27,152.9l1.645-8.142Z" transform="translate(-48.042 -123.58)" fill="#fff"/>
  <path id="Path_636" data-name="Path 636" d="M296.454,296.931a.825.825,0,0,1-.6-.256l-1.645-1.733a.82.82,0,0,1-.209-.731l1.645-8.141a.823.823,0,0,1,1.609,0l1.645,8.141a.82.82,0,0,1-.209.731l-1.647,1.733A.819.819,0,0,1,296.454,296.931Zm-.756-2.812.756.794.753-.794-.753-3.732Z" transform="translate(-286.578 -265.054)" fill="#0077B6"/>
  <path id="Path_637" data-name="Path 637" d="M286.845,243.16a4.546,4.546,0,1,0-4.115-4.524A4.334,4.334,0,0,0,286.845,243.16Z" transform="translate(-276.97 -221.245)" fill="#fff"/>
  <path id="Path_638" data-name="Path 638" d="M282.038,239.177a5.366,5.366,0,1,1,4.937-5.348A5.162,5.162,0,0,1,282.038,239.177Zm0-9.05a3.728,3.728,0,1,0,3.29,3.7A3.519,3.519,0,0,0,282.038,230.127Z" transform="translate(-272.163 -216.438)" fill="#0077B6"/>
  <path id="Path_639" data-name="Path 639" d="M413.238,378.895a.823.823,0,0,1-.823-.823v-1.651h-9.874v1.647a.823.823,0,1,1-1.645,0V375.6a.822.822,0,0,1,.822-.823h11.52a.823.823,0,0,1,.822.823v2.468A.823.823,0,0,1,413.238,378.895Z" transform="translate(-377.855 -341.345)" fill="#0077B6"/>
  <path id="Path_640" data-name="Path 640" d="M494.543,187.921h-.822a.823.823,0,1,1,0-1.645h.822a.823.823,0,1,1,0,1.645Z" transform="translate(-456.375 -180.405)" fill="#0077B6"/>
  <path id="Path_641" data-name="Path 641" d="M482.663,171.843a.822.822,0,0,1-.823-.822v-.828a.823.823,0,1,1,1.646,0v.823a.822.822,0,0,1-.823.826Z" transform="translate(-446.964 -165.972)" fill="#0077B6"/>
  <path id="Path_642" data-name="Path 642" d="M466.809,187.925h-.823a.823.823,0,0,1,0-1.645h.823a.823.823,0,0,1,0,1.645Z" transform="translate(-432.755 -180.409)" fill="#0077B6"/>
  <path id="Path_643" data-name="Path 643" d="M482.663,200a.823.823,0,0,1-.823-.823v-.823a.823.823,0,1,1,1.646,0v.823A.823.823,0,0,1,482.663,200Z" transform="translate(-446.964 -190.014)" fill="#0077B6"/>
  <path id="Path_644" data-name="Path 644" d="M429.269,168.287a.821.821,0,0,1-.585-.241l-.585-.585a.825.825,0,0,1,1.163-1.17l.585.585a.823.823,0,0,1-.585,1.405Z" transform="translate(-400.874 -163.138)" fill="#0077B6"/>
  <path id="Path_645" data-name="Path 645" d="M428.7,148.429a.822.822,0,0,1-.585-1.4l.585-.585a.825.825,0,0,1,1.163,1.17l-.585.585a.815.815,0,0,1-.578.234Z" transform="translate(-400.892 -146.191)" fill="#0077B6"/>
  <path id="Path_646" data-name="Path 646" d="M409.375,148.371a.814.814,0,0,1-.585-.241l-.585-.585a.827.827,0,1,1,1.17-1.17l.585.585a.823.823,0,0,1-.585,1.4Z" transform="translate(-383.89 -146.133)" fill="#0077B6"/>
  <path id="Path_647" data-name="Path 647" d="M408.818,168.306a.823.823,0,0,1-.585-1.405l.585-.585a.827.827,0,0,1,1.17,1.17l-.585.585A.821.821,0,0,1,408.818,168.306Z" transform="translate(-383.915 -163.157)" fill="#0077B6"/>
  <path id="Path_648" data-name="Path 648" d="M382,210.391h-.823a.823.823,0,1,1,0-1.645H382a.823.823,0,0,1,0,1.645Z" transform="translate(-360.292 -199.589)" fill="#0077B6"/>
  <path id="Path_649" data-name="Path 649" d="M370.133,194.572a.823.823,0,0,1-.823-.823v-.823a.823.823,0,0,1,1.645,0v.823A.823.823,0,0,1,370.133,194.572Z" transform="translate(-350.889 -185.41)" fill="#0077B6"/>
  <path id="Path_650" data-name="Path 650" d="M354.269,210.391h-.823a.823.823,0,0,1,0-1.645h.823a.823.823,0,1,1,0,1.645Z" transform="translate(-336.672 -199.589)" fill="#0077B6"/>
  <path id="Path_651" data-name="Path 651" d="M370.129,222.306a.822.822,0,0,1-.823-.822v-.823a.823.823,0,1,1,1.645,0v.823A.822.822,0,0,1,370.129,222.306Z" transform="translate(-350.885 -209.03)" fill="#0077B6"/>
</svg>
