<svg xmlns="http://www.w3.org/2000/svg" width="34.979" height="39.709" viewBox="0 0 34.979 39.709">
  <g id="project" transform="translate(0 0.5)">
    <rect id="Rectangle_823" data-name="Rectangle 823" width="26.681" height="31.585" rx="2" transform="translate(7.798 4.532)" fill="none" stroke="#0077B6" stroke-miterlimit="10" stroke-width="1"/>
    <path id="Path_663" data-name="Path 663" d="M436.4,145.771a.862.862,0,0,1-.571-.254l-2.776-2.729a.587.587,0,0,1,.08-.922.875.875,0,0,1,1.087.067l2.171,2.125,4.694-4.863a.875.875,0,0,1,1.084-.093.583.583,0,0,1,.114.914l-5.274,5.489a.828.828,0,0,1-.587.263Z" transform="translate(-409.989 -130.611)" fill="none" stroke="#0077B6" stroke-miterlimit="10" stroke-width="1"/>
    <rect id="Rectangle_824" data-name="Rectangle 824" width="1.245" height="5.04" transform="translate(12.603 10.134)" fill="#f5fafd"/>
    <rect id="Rectangle_825" data-name="Rectangle 825" width="1.245" height="5.04" transform="translate(12.603 19.175)" fill="#f5fafd"/>
    <path id="Path_664" data-name="Path 664" d="M443.945,247.274l2.911-2.714a.577.577,0,0,0,.005-.85.666.666,0,0,0-.9,0l-2.911,2.714-2.882-2.749a.666.666,0,0,0-.9,0,.577.577,0,0,0,0,.85l2.881,2.744-2.911,2.714a.578.578,0,0,0-.005.85.664.664,0,0,0,.9,0l2.912-2.714,2.881,2.744a.664.664,0,0,0,.9,0,.577.577,0,0,0,.007-.849Z" transform="translate(-415.625 -226)" fill="none" stroke="#0077B6" stroke-miterlimit="10" stroke-width="1"/>
    <rect id="Rectangle_826" data-name="Rectangle 826" width="6.014" height="5.667" transform="translate(12.49 9.897)" fill="none" stroke="#0077B6" stroke-miterlimit="10" stroke-width="1"/>
    <rect id="Rectangle_827" data-name="Rectangle 827" width="6.014" height="5.667" transform="translate(12.49 18.886)" fill="none" stroke="#0077B6" stroke-miterlimit="10" stroke-width="1"/>
    <path id="Path_665" data-name="Path 665" d="M437.009,380.377h-8.543a.4.4,0,0,1-.371-.414h0a.394.394,0,0,1,.371-.413h8.543a.394.394,0,0,1,.371.413h0A.4.4,0,0,1,437.009,380.377Z" transform="translate(-405.636 -350.143)" fill="#0077B6"/>
    <path id="Path_666" data-name="Path 666" d="M446.852,412.146h-6.634c-.159,0-.288-.185-.288-.413h0c0-.228.129-.413.288-.413h6.634c.16,0,.289.185.289.413h0C447.144,411.962,447.015,412.146,446.852,412.146Z" transform="translate(-416.436 -379.132)" fill="#0077B6"/>
    <path id="Path_667" data-name="Path 667" d="M215.219,309.87a3.425,3.425,0,1,0-3.349-3.237A3.48,3.48,0,0,0,215.219,309.87Z" transform="translate(-208.335 -280.32)" fill="#0077B6"/>
    <path id="Path_668" data-name="Path 668" d="M209,470.91" transform="translate(-205.721 -433.505)" fill="#3d4451"/>
    <path id="Path_669" data-name="Path 669" d="M172.246,375.24a7.177,7.177,0,0,1,1.8-3.662,5.116,5.116,0,0,1,3.482-1.536c.561,0,2.828-.007,4.1.07,0,0,5.759-1.545,6.154-1.608a1.739,1.739,0,0,1,1.159.175,1.009,1.009,0,0,1,.473.618,1.319,1.319,0,0,1-.345,1.2,5.865,5.865,0,0,1-2.371,1.17c-.907.326-1.809.666-2.722.979-.788.27-1.226,1.335-1.417,2.047a34.925,34.925,0,0,0,.005,3.708v.766c-2.668,0-5.34.023-8.006,0,.042-1.126,0-2.265,0-3.393q-.282,1.7-.566,3.4a15.753,15.753,0,0,1-1.938.051c-.472-.048-.572-.108-.5-.531.072-.408.158-.814.238-1.225C171.943,376.762,172.069,376,172.246,375.24Z" transform="translate(-171.542 -340.038)" fill="#0077B6"/>
    <path id="Path_670" data-name="Path 670" d="M209.48,468.36" transform="translate(-206.159 -431.179)" fill="#3d4451"/>
    <path id="Path_671" data-name="Path 671" d="M186.387,282.706l6.61-6.081-.493-.405-7.124,5.543" transform="translate(-169.151 -252.487)" fill="#0077B6"/>
    <path id="Path_672" data-name="Path 672" d="M73.94,362.784l.66-2.841L74,358.68h1.813l-.659,1.262.769,2.841Z" transform="translate(-67.466 -327.729)" fill="#fff"/>
    <path id="Path_673" data-name="Path 673" d="M342.917,46.29h-3.7a2.271,2.271,0,0,0,.016-.268,2.521,2.521,0,0,0-5.038,0,2.214,2.214,0,0,0,.017.268h-3.234a1.417,1.417,0,0,0-1.446,1.385v2.054a1.417,1.417,0,0,0,1.446,1.385h11.941a1.417,1.417,0,0,0,1.446-1.385V47.675A1.415,1.415,0,0,0,342.917,46.29Zm-6.2.91a1,1,0,1,1,1.043-1A1.021,1.021,0,0,1,336.713,47.2Z" transform="translate(-315.7 -43.61)" fill="#fff" stroke="#0077B6" stroke-miterlimit="10" stroke-width="1"/>
  </g>
</svg>
