<svg xmlns="http://www.w3.org/2000/svg" width="35.414" height="35.41" viewBox="0 0 35.414 35.41">
  <path id="settings" d="M312.487,143.368a13.544,13.544,0,0,0,.206-3.642l3.722-1.986-1.911-5.318-4.058.817a13.563,13.563,0,0,0-2.509-2.824l1.187-3.907L304.01,124.1l-2.216,3.332a13.551,13.551,0,0,0-3.9-.219l-1.865-3.5-5.32,1.91.778,3.854a13.526,13.526,0,0,0-2.93,2.662l-3.766-1.143-2.413,5.109,3.308,2.194a13.5,13.5,0,0,0-.156,3.9L282,144.089l1.907,5.32,4.009-.807a13.572,13.572,0,0,0,2.57,2.762l-1.207,3.961,5.113,2.413,2.337-3.517a13.608,13.608,0,0,0,3.644.147l2.006,3.752,5.324-1.911-.849-4.2a13.538,13.538,0,0,0,2.66-2.413l4.107,1.242,2.413-5.11Zm-14.093,4.249a6.936,6.936,0,1,1,7.656-6.135A6.936,6.936,0,0,1,298.394,147.617Z" transform="translate(-281.5 -123.21)" fill="none" stroke="#0077B6" stroke-linecap="round" stroke-linejoin="round" stroke-width="1"/>
</svg>
