<svg xmlns="http://www.w3.org/2000/svg" width="38.261" height="27.088" viewBox="0 0 38.261 27.088">
  <g id="venders" transform="translate(0.5 0.5)">
    <path id="Path_674" data-name="Path 674" d="M450.77,236.446v1.161h-.78v-1.128a4.364,4.364,0,0,1-2.021-.491v-1.481a3.124,3.124,0,0,0,.925.464,4.253,4.253,0,0,0,1.1.247v-1.946a4.11,4.11,0,0,1-1.708-1.008,1.987,1.987,0,0,1-.458-1.323,1.943,1.943,0,0,1,.594-1.43,2.5,2.5,0,0,1,1.569-.687v-.993h.783v.972a3.95,3.95,0,0,1,1.684.364v1.443a4.036,4.036,0,0,0-1.684-.556v2.026a4.208,4.208,0,0,1,1.678.965,1.849,1.849,0,0,1,.508,1.312,1.89,1.89,0,0,1-.567,1.429A2.694,2.694,0,0,1,450.77,236.446Zm-.78-4.677v-1.694q-.743.133-.743.775,0,.553.746.919Zm.78,1.807v1.62q.765-.117.764-.764Q451.536,233.913,450.77,233.576Z" transform="translate(-426.385 -219.502)" fill="#0077B6"/>
    <ellipse id="Ellipse_8" data-name="Ellipse 8" cx="7.074" cy="7.074" rx="7.074" ry="7.074" transform="translate(16.918 6.008)" fill="none" stroke="#0077B6" stroke-miterlimit="10" stroke-width="1"/>
    <ellipse id="Ellipse_9" data-name="Ellipse 9" cx="5.768" cy="5.768" rx="5.768" ry="5.768" transform="translate(18.224 7.314)" fill="none" stroke="#0077B6" stroke-miterlimit="10" stroke-width="1"/>
    <path id="Path_675" data-name="Path 675" d="M373.339,161.519a10.125,10.125,0,0,0-.469-2.674l2.359-2.071-2.288-3.528-2.8,1.281a10.04,10.04,0,0,0-2.3-1.62l.2-3.032L363.924,149l-1.038,2.792a10.063,10.063,0,0,0-2.864.5l-1.949-2.216-3.526,2.283,1.218,2.66a10.119,10.119,0,0,0-1.673,2.427l-2.924-.189-.878,4.112,2.77,1.03a10.057,10.057,0,0,0,.546,2.852l-2.24,1.968,2.291,3.528,2.772-1.266a10.108,10.108,0,0,0,2.332,1.569l-.2,3.074,4.115.877,1.1-2.946a10.068,10.068,0,0,0,2.664-.512l2.091,2.378,3.53-2.287-1.329-2.9a10.063,10.063,0,0,0,1.516-2.2l3.187.209.878-4.112Z" transform="translate(-339.05 -148.915)" fill="none" stroke="#0077B6" stroke-linejoin="round" stroke-width="1"/>
    <rect id="Rectangle_828" data-name="Rectangle 828" width="16.644" height="21.378" transform="translate(4.675 0)" fill="#fff"/>
    <path id="Path_676" data-name="Path 676" d="M5.333,58.11H1.78V78.12H18.143V74.941" transform="translate(-1.78 -52.22)" fill="none" stroke="#0077B6" stroke-miterlimit="10" stroke-width="1"/>
    <path id="Path_677" data-name="Path 677" d="M287.5,148.19V169.7h16.644V148.19Z" transform="translate(-282.826 -148.19)" fill="none" stroke="#0077B6" stroke-miterlimit="10" stroke-width="1"/>
    <rect id="Rectangle_829" data-name="Rectangle 829" width="7.708" height="1.215" rx="0.608" transform="translate(7.387 4.701)" fill="#0077B6"/>
    <path id="Path_678" data-name="Path 678" d="M324.23,222.925H314.039a.608.608,0,0,1-.609-.608h0a.608.608,0,0,1,.609-.608H324.23a.609.609,0,0,1,.609.608h0A.609.609,0,0,1,324.23,222.925Z" transform="translate(-306.044 -214.022)" fill="#0077B6"/>
    <path id="Path_679" data-name="Path 679" d="M323.34,249.586H313.148a.607.607,0,0,1-.607-.608h0a.609.609,0,0,1,.607-.609H323.34a.609.609,0,0,1,.608.609h0A.608.608,0,0,1,323.34,249.586Z" transform="translate(-305.248 -237.894)" fill="#0077B6"/>
    <rect id="Rectangle_830" data-name="Rectangle 830" width="3.212" height="3.908" transform="translate(15.875 1.943)" fill="#0077B6"/>
  </g>
</svg>
